<svg xmlns="http://www.w3.org/2000/svg" xmlns:xlink="http://www.w3.org/1999/xlink" version="1.0" x="0px" y="0px" width="100%" height="100%" viewBox="0 0 24 24" enable-background="new 0 0 24 24" xml:space="preserve"><style>.style0{fill:	#FFFFFF;}</style><path d="M12 0C5.373 0 0 5.4 0 12c0 6.6 5.4 12 12 12c6.627 0 12-5.373 12-12C24 5.4 18.6 0 12 0z M15.626 13H13v7h-3v-6.83V13H8v-3h2V8.256c0-1.103 0.375-1.942 1.017-2.539c0.64-0.528 1.648-0.84 2.723-0.84 C14.608 4.9 15 4.9 16 4.985V7h-1.613c-0.484 0-0.893 0.266-1.061 0.479C13.156 7.7 13 8.2 13 8.585V10h3L15.626 13z" class="style0"/></svg>