<svg version="1" xmlns="http://www.w3.org/2000/svg" viewBox="0 0 244 241"><path fill="#8E449A" d="M76.089 137.941c-1.083 0-2.118.416-2.904 1.207-.784.791-1.189 1.826-1.189 2.943 0 1.113.406 2.135 1.189 2.926.786.79 1.804 1.209 2.904 1.209 1.096 0 2.099-.419 2.883-1.209.784-.791 1.207-1.813 1.207-2.926 0-1.117-.423-2.152-1.207-2.943-.769-.791-1.806-1.207-2.883-1.207zm-76.089-137.941v241h244v-241h-244zm94.693 97.784c3.371-3.285 7.788-5.022 12.87-5.022 4.083 0 7.648 1.173 10.973 3.474l-.284 5.489c-3.137-2.629-6.605-3.941-10.452-3.941-7.457 0-12.538 5.208-12.538 12.667 0 7.365 5.177 12.479 11.97 12.479 4.038 0 7.648-1.406 10.971-4.219v6.145c-2.991 2.109-6.46 3.141-10.543 3.141-5.226 0-9.69-1.733-13.017-4.973-3.323-3.237-5.129-7.739-5.129-12.619 0-4.928 1.806-9.336 5.179-12.621zm-29.504 41.443c-1.035-.869-2.179-1.303-3.449-1.303-2.461 0-4.139 1.721-4.139 4.182 0 2.433 1.709 4.121 3.95 4.121 1.333 0 2.524-.465 3.622-1.396v2.029c-.987.696-2.132 1.039-3.479 1.039-1.725 0-3.201-.574-4.301-1.644-1.094-1.068-1.689-2.555-1.689-4.164 0-1.627.595-3.082 1.708-4.168 1.113-1.083 2.571-1.656 4.248-1.656 1.35 0 2.525.387 3.622 1.146l-.093 1.814zm-4.989-11.861l-6.412-16.938c-.664-1.785-1.284-3.519-1.804-5.301-.998 3.238-1.662 5.064-1.854 5.629l-6.838 17.922-7.174-18.25c-.619-1.595-1.235-3.379-1.804-5.347-.382 1.594-.951 3.284-1.663 5.204l-6.365 17.081h-5.51l13.155-34.862 7.745 19.144c.665 1.642 1.234 3.237 1.663 4.691.473-1.64.994-3.238 1.615-4.786l7.6-19.049 13.109 34.862h-5.463zm20.119 18.829c-1.144 1.1-2.632 1.704-4.23 1.704-1.602 0-3.124-.604-4.251-1.704-1.144-1.1-1.739-2.524-1.739-4.104 0-1.581.595-3.004 1.739-4.12 1.144-1.101 2.635-1.688 4.251-1.688 1.612 0 3.086.587 4.23 1.688 1.147 1.116 1.757 2.556 1.757 4.12 0 1.58-.61 3.005-1.757 4.104zm4.784-34.618c-1.52-1.64-3.612-2.579-6.033-2.579-4.085 0-6.792 2.813-6.792 7.176 0 4.551 2.656 7.273 7.028 7.273 2.422 0 4.324-.893 5.796-2.722v5.726c-1.852 1.029-3.942 1.545-6.365 1.545-6.889 0-11.688-4.783-11.688-11.681 0-6.988 4.94-11.68 12.208-11.68 2.231 0 4.133.419 5.844 1.362v5.58zm12.479 36.462l-7.262-6.894c-.406-.387-.766-.806-1.084-1.239v7.697h-1.676v-11.506l7.119 6.768c.457.434.848.883 1.223 1.348v-7.682h1.681v11.508zm8.886-.14c-1.913 0-3.168-.899-3.544-2.509l1.458-.668c.268.99 1.02 1.518 2.164 1.518 1.097 0 1.773-.648 1.773-1.641 0-1.082-.832-1.348-1.995-1.904-1.987-.959-3.087-1.704-3.087-3.377 0-1.781 1.333-3.034 3.371-3.034 1.663 0 2.808.665 3.23 1.826l-1.426.729c-.44-.682-.957-1.008-1.663-1.008-.986 0-1.599.558-1.599 1.396 0 1.066.877 1.392 2.131 1.966 1.977.899 2.903 1.688 2.903 3.282.001 2.059-1.397 3.424-3.716 3.424zm18.19-4.477c0 2.99-1.521 4.478-4.611 4.478-3.089 0-4.595-1.487-4.595-4.478v-6.891h1.804v6.721c0 1.996.941 3.004 2.791 3.004s2.791-1.008 2.791-3.004v-6.721h1.82v6.891zm11.865 4.182h-5.897v-11.072h1.818v9.463h4.079v1.609zm10.581-9.538h-2.961v9.537h-1.818v-9.537h-2.98v-1.535h7.76v1.535zm-3.44-19.591h-13.443l-3.943 8.632h-5.793l16.435-34.859 16.438 34.859h-5.848l-3.846-8.632zm10.061 29.129h-1.82v-11.072h1.82v11.072zm16.046.435l-7.261-6.894c-.408-.387-.768-.806-1.082-1.239v7.697h-1.677v-11.506l7.119 6.768c.454.434.846.883 1.22 1.348v-7.682h1.681v11.508zm11.506-.14c-1.836 0-3.262-.526-4.344-1.612-1.065-1.069-1.646-2.555-1.646-4.195 0-1.674.581-3.1 1.709-4.182 1.096-1.053 2.6-1.626 4.281-1.626 1.77 0 3.151.634 4.229 1.935l-1.328.992c-.754-.867-1.694-1.287-2.869-1.287-2.399 0-4.127 1.66-4.127 4.15 0 2.525 1.711 4.213 4.141 4.213 2.102 0 3.356-1.039 3.356-2.678v-.156h-2.696v-1.518h4.436c.018.448.029.791.029 1.039-.001 3.143-1.909 4.925-5.171 4.925zm5.616-19.478l-21.996-20.88c-1.234-1.173-2.329-2.438-3.277-3.752v23.317h-5.084v-34.859l21.568 20.505c1.377 1.315 2.562 2.673 3.704 4.081v-23.273h5.085v34.861zm37.216 0l-21.992-20.88c-1.236-1.173-2.328-2.438-3.277-3.752v23.317h-5.082v-34.859l21.564 20.505c1.377 1.315 2.562 2.673 3.703 4.081v-23.273h5.084v34.861zm-87.141-25.946c-.431 1.69-.856 2.91-1.235 3.803l-3.467 7.645h9.449l-3.467-7.645c-.378-.893-.809-2.113-1.28-3.803z"/></svg>