<svg xmlns:dc="http://purl.org/dc/elements/1.1/" xmlns:cc="http://creativecommons.org/ns#" xmlns:rdf="http://www.w3.org/1999/02/22-rdf-syntax-ns#" xmlns:svg="http://www.w3.org/2000/svg" xmlns="http://www.w3.org/2000/svg" xmlns:sodipodi="http://sodipodi.sourceforge.net/DTD/sodipodi-0.dtd" xmlns:inkscape="http://www.inkscape.org/namespaces/inkscape" version="1.0" x="0px" y="0px" width="100%" height="100%" viewBox="0 0 23 23" enable-background="new 0 0 23 19.98" xml:space="preserve" inkscape:version="0.48.4 r9939"><style>.style0{fill:	#ffffff;}</style><metadata><rdf:RDF><cc:Work rdf:about=""><dc:format>image/svg+xml</dc:format><dc:type rdf:resource="http://purl.org/dc/dcmitype/StillImage"/></cc:Work></rdf:RDF></metadata><defs/><path d="M9 4.06C8 4.6 6.5 5.2 5.8 6.285C5.066 7.4 4.7 9 4.7 9.98H9v10H0v-9.69c0-1.306 0.334-2.52 0.801-3.64 C1.266 5.5 1.9 4.5 2.7 3.675C3.533 2.8 4.5 2.1 5.6 1.47C6.605 0.9 8 0.4 9 0V4.06z M23 4.1 c-2 0.514-2.521 1.152-3.244 2.225c-0.725 1.074-1.146 2.695-1.146 3.695H23v10h-9v-9.69c0-1.306 0.299-2.52 0.766-3.64 c0.465-1.12 1.128-2.111 1.923-2.975c0.793-0.863 1.791-1.598 2.84-2.205C20.579 0.9 22 0.4 23 0V4.06z" class="style0"/></svg>