<svg xmlns:dc="http://purl.org/dc/elements/1.1/" xmlns:cc="http://creativecommons.org/ns#" xmlns:rdf="http://www.w3.org/1999/02/22-rdf-syntax-ns#" xmlns:svg="http://www.w3.org/2000/svg" xmlns="http://www.w3.org/2000/svg" xmlns:sodipodi="http://sodipodi.sourceforge.net/DTD/sodipodi-0.dtd" xmlns:inkscape="http://www.inkscape.org/namespaces/inkscape" version="1.0" x="0px" y="0px" width="100%" height="100%" viewBox="0 0 140 140" enable-background="new 0 0 138 138" xml:space="preserve" inkscape:version="0.48.4 r9939"><style>.style0{fill:	#4E4E4E;}</style><metadata><rdf:RDF><cc:Work rdf:about=""><dc:format>image/svg+xml</dc:format><dc:type rdf:resource="http://purl.org/dc/dcmitype/StillImage"/></cc:Work></rdf:RDF></metadata><defs/><style>.truth_well_told{fill:	#251F21;}</style><path d="M69.001 0C30.957 0 0 31 0 68.995C0 107 31 138 69 138C107.046 138 138 107 138 69 C138 31 107 0 69 0z M69.001 134.349c-36.033 0-65.351-29.316-65.351-65.354c0-36.032 29.318-65.344 65.351-65.344 c36.031 0 65.3 29.3 65.3 65.344C134.35 105 105 134.3 69 134.349z M118.063 73.199H17.978v1.458h100.084 L118.063 73.199L118.063 73.199z M24.785 69.354h3.865V47.385h5.867v-3.631H18.898v3.632h5.887V69.354z M41.828 58.871h0.695 l7.316 10.481h4.723l-7.926-10.91c1.707-0.361 3.075-1.2 4.113-2.501c1.039-1.306 1.559-2.866 1.559-4.677 c0-2.321-0.829-4.189-2.483-5.605c-1.506-1.268-3.951-1.906-7.33-1.906h-4.529v25.599h3.861V58.871z M41.828 47.386h1.377 c3.56 0 5.3 1.3 5.3 3.926c0 2.798-1.831 4.194-5.487 4.194h-1.229V47.386z M66.151 69.82c2.749 0 5.07-0.977 6.962-2.923 c1.678-1.744 2.517-3.964 2.517-6.663V43.754h-3.86v15.409c0 2.23-0.356 3.837-1.076 4.823c-1.072 1.468-2.593 2.203-4.542 2.2 c-1.95 0-3.457-0.734-4.529-2.203c-0.715-1.02-1.081-2.625-1.081-4.823V43.754h-3.861v16.481c0 2.7 0.8 4.9 2.5 6.7 C61.079 68.8 63.4 69.8 66.2 69.82z M84.968 69.354h3.859V47.385h5.872v-3.631H79.08v3.632h5.888V69.354z M102.66 57.4 h11.042v11.958h3.86V43.753h-3.86v10.014H102.66V43.753h-3.861v25.604h3.861V57.399z M32.152 88.643l-3.816-10.521l-3.994 10.5 l-3.818-9.806h-2.408l6.234 15.613l3.936-10.409l3.776 10.401l6.553-15.606h-2.402L32.152 88.643z M40.446 93.507h8.092v-2.079 h-5.88v-4.903h5.708v-2.083h-5.708V80.92h5.88v-2.081h-8.092V93.507z M52.882 78.836H50.67v14.671h6.53v-2.079h-4.318V78.836z M65.83 91.429h-4.318V78.836h-2.211v14.671h6.529V91.429z M72.003 80.92h3.379v12.587h2.207V80.92h3.37v-2.081h-8.955V80.92z M89.051 78.561c-2.117 0-3.928 0.738-5.434 2.219c-1.516 1.489-2.269 3.261-2.269 5.326c0 2.3 0.8 4.2 2.5 5.7 c1.506 1.3 3.2 2 5.1 1.97c2.14 0 3.967-0.741 5.482-2.212c1.505-1.469 2.263-3.259 2.263-5.372 c0-2.097-0.752-3.894-2.253-5.385C92.94 79.3 91.1 78.6 89.1 78.561z M92.863 90.1c-1.058 1.063-2.358 1.595-3.893 1.6 c-1.42 0-2.669-0.525-3.757-1.569c-1.091-1.043-1.635-2.376-1.635-3.994c0-1.548 0.529-2.843 1.578-3.898 c1.049-1.058 2.341-1.592 3.865-1.592c1.535 0 2.8 0.5 3.9 1.592c1.045 1.1 1.6 2.4 1.6 3.9 C94.452 87.7 93.9 89 92.9 90.1z M100.923 78.836h-2.21v14.671h6.525v-2.079h-4.313L100.923 78.836L100.923 78.836z M116.419 80.726c-0.749-0.685-1.583-1.168-2.501-1.454c-0.859-0.292-2.021-0.434-3.5-0.434h-3.08v14.669h3.041 c1.492 0 2.641-0.139 3.453-0.406c0.861-0.27 1.697-0.756 2.487-1.451c1.577-1.399 2.374-3.224 2.374-5.478 C118.692 83.9 117.9 82.1 116.4 80.726z M114.822 90.063c-0.534 0.481-1.13 0.828-1.792 1.1 c-0.657 0.211-1.488 0.315-2.478 0.315h-0.997V80.92h0.997c1.886 0 3.3 0.4 4.3 1.339c1.081 1 1.6 2.3 1.6 3.9 C116.453 87.8 115.9 89.1 114.8 90.063z M62.566 111.209h0.972v4.854h0.854v-5.652h-1.359L62.566 111.209z M67.156 110.3 c-0.514 0-0.958 0.181-1.33 0.553c-0.367 0.369-0.552 0.815-0.552 1.335c0 0.5 0.2 0.9 0.5 1.2 c0.334 0.4 0.7 0.5 1.2 0.525c0.034 0 0.1 0 0.124-0.01c0.052 0 0.119-0.011 0.191-0.021l-1.354 1.841l0.629 0.5 l1.969-2.673c0.376-0.51 0.557-0.986 0.557-1.426c0-0.493-0.19-0.923-0.567-1.285C68.124 110.5 67.7 110.3 67.2 110.317z M67.929 112.915c-0.21 0.207-0.463 0.311-0.753 0.311c-0.3 0-0.548-0.104-0.758-0.315c-0.21-0.205-0.309-0.468-0.309-0.769 c0-0.286 0.099-0.533 0.314-0.742c0.205-0.21 0.453-0.316 0.749-0.316s0.548 0.1 0.8 0.316c0.208 0.2 0.3 0.5 0.3 0.8 C68.243 112.5 68.1 112.7 67.9 112.915z M69.415 111.209h0.983v4.854h0.853v-5.652h-1.363L69.415 111.209z M74.62 114.2 c0.248-0.287 0.448-0.54 0.606-0.748c0.162-0.215 0.28-0.396 0.365-0.55c0.163-0.295 0.248-0.595 0.248-0.906 c0-0.48-0.176-0.886-0.528-1.215c-0.35-0.322-0.782-0.483-1.296-0.483c-1.069 0-1.669 0.591-1.806 1.78h0.847 c0.085-0.675 0.411-1.014 0.982-1.014c0.276 0 0.5 0.1 0.7 0.273c0.19 0.2 0.3 0.4 0.3 0.7 c0 0.184-0.066 0.389-0.209 0.616c-0.065 0.118-0.166 0.262-0.3 0.434c-0.129 0.178-0.291 0.38-0.481 0.618l-1.964 2.375h3.794 v-0.803h-2.102L74.62 114.222z" class="style0"/></svg>